<svg xmlns="http://www.w3.org/2000/svg" width="256pt" height="256pt" viewBox="0 0 256 256"><path d="M177.234 8c-.324.012-.578.105-.75.266l-29.718 35.297-6.063 20.843a385.556 385.556 0 00-12.734-.187C97.082 64.219 72 67.492 72 71.547c0 9.68 111.922 9.68 111.922 0 0-3-13.399-5.535-32.719-6.734L156 47.656l27.797-33.437.047-.047c.625-.649-.594-2.594-2.578-4.297-1.489-1.285-3.055-1.914-4.032-1.875zm-38.812 64.61l-.11.328c-.046.039-.046.093-.046.14 0 .602 2.422 1.094 5.375 1.094s5.39-.492 5.39-1.094l.094-.375c.777.281 1.203.602 1.203.969 0 .969-3 1.758-6.734 1.719-3.633 0-6.64-.735-6.64-1.704 0-.414.597-.796 1.468-1.078zm44.875 2.75c-14.809 7.894-95.7 7.949-110.563.109l6.579 57.86c2.855-9.224 10.078-21.677 19.374-25.454 3.047-1.246 6.145-1.242 9.047.422 2.52 1.383 4.653 4.285 4.891 5.437.586 3-.965 4.188-2.172 4.188-1.457 0-2.57-2.113-3.297-3.36-1.984-3.367-4.988-3.511-8.187-1.296-3.344 2.304-6.25 6.18-8.281 9.546-2.473 4.055-4.555 8.528-5.813 13-.727 2.586-1.395 6.723-.281 9.172.488 1.016 1.207 1.657 2.375 1.657 2.426 0 5.945-3.04 7.64-4.657 2.176-2.07 4.985-5.304 6.047-7.375l2.531-7.14c1.258-3.137 4.782-2.586 4.782 0 0 4.703-1.781 6.273-4.828 16-2.809 8.992-3.688 11.906-3.688 11.906-.336 1.29-1.648 3.453-3.047 3.453-.586 0-1.011-.195-1.25-.562-.488-.649-.437-2.426-.39-2.891.097-1.473 3.043-10.242 3.53-11.625a58.751 58.751 0 01-3.093 3.047c-2.617 2.351-6.82 5.437-10.406 5.437-1.649 0-2.703-.422-3.719-1.109l3.672 36.703c.969 2.305 18.984 7.89 42.703 7.89 23.77 0 41.766-5.624 42.688-7.89l5.28-43.61c-2.76 2.4-5.948 5.356-9.483 6.829-2.618 1.062-8.422 1.742-8.422-2.64 0-2.4 4.41-6.817 6.968-9.907.68-.785 2.266-2.719 2.266-3.734 0-1.336-2.895-1.028-5.656 1.14-1.551 1.246-3.012 2.918-4.219 4.485-2.078 2.77-3.188 5.156-4.11 7.14-3 6.543-1.98 3.965-4.406 10.14-2.425 6.138-2.027 5.438-2.515 6.454-.434.879-1.067 1.621-1.938 2.078-.922.465-2.176.41-2.953-.14-.433-.282-.64-.88-.64-1.704 0-.414.058-.836.156-1.25.726-2.816 3.777-8.34 7.265-15.812.778-1.703.48-1.2.375-1.063-3 2.77-5.28 4.11-6.968 4.844-2.809 1.2-6.297 1.2-7.016-1.89-.047-.184-.047-.38-.094-.563-5.71 4.238-11.761 5.395-9.672-3.734-2.222 3.785-6.105 6.875-10.859 6.875-1.984 0-3.438-.641-4.156-2.344-1.114-2.535.625-6.879 2.219-10.984.824-2.07 1.949-4.567 3.453-7.47.777-1.566 2.023-2.491 3.671-2.077.29.097.543.191.782.328 1.258.832.773 2.066.14 3.312-1.84 3.457-3.437 5.992-4.5 9.594-.433 1.52-.976 4.156.72 4.156 1.16 0 2.273-.375 3.343-1.11 2.223-1.566 4.016-3.913 5.375-6.218.969-1.656 2.137-3.824 2.719-5.672.238-.785.539-1.523.875-2.219.535-1.152 1.25-2.343 2.515-2.343.633 0 1.156.23 1.547.687.824 1.016.645 2.059.203 3.172-.969 2.586-2.273 4.895-3.344 7.703-.632 1.617-1.312 3.688-1.312 5.39 0 1.567 1.793 1.196 3.297.548 1.16-.504 2.32-1.278 3.297-2.063.586-2.258.43-1.758 12.781-31.453.633-1.52 1.793-2.172 2.953-2.172.586 0 1.059.196 1.547.516.824.601.836 1.875.5 2.844-.336.879-.3.605-2.188 4.843-2.519 5.575-4.16 9.598-6.39 14.72-.922 2.12-3.723 8.714-4.203 10.28-.29 1.016-.637 2.672.484 2.672 2.617 0 9.348-6.043 11.188-7.844.097-.136.246-.183.437-.28.29-.88.574-1.7.813-2.532.68-1.75 1.312-3.793 2.578-5.219.383-.465.816-.734 1.297-.734 1.351 0 2.03.547 2.03 1.844 0 .504-.331 2.355-.53 2.859a44.466 44.466 0 012.172-2.063c7.265-6.406 12.437-3.136 12.437.094 0 3.406-4.305 8.149-6.672 10.781-.777.88-2.375 2.489-2.422 2.954 0 .601.43.843 1.063.843.969 0 3.097-1.62 3.875-2.172 2.426-1.8 5.703-4.562 8.031-6.5zm-95.86 116.89l7.22 11.719 2.812 36.61c0 4.105 13.699 7.421 30.547 7.421 16.847 0 30.547-3.316 30.547-7.422l2.234-36.984 6.812-11.344c-19.175 7.703-60.218 7.977-80.172 0zm0 0" fill="#fff"/></svg>