<svg xmlns="http://www.w3.org/2000/svg" width="128pt" height="128pt" viewBox="0 0 128 128"><path d="M13.023 36.602c-5.68 0-8.203 2.199-8.203 9.039 0 4.52.64 7.043.64 10.922 0 2.199-1.35 4.519-5.452 4.718v5.461c4.101.102 5.453 2.426 5.453 4.625 0 3.88-.64 6.2-.64 10.719 0 6.84 2.523 9.039 8.1 9.039h4.102v-4.844h-1.257c-2.621 0-3.461-1.054-3.461-4.515 0-3.461.32-6.426.32-10.305 0-4.84-1.578-6.715-4.719-7.453v-.32c3.16-.739 4.719-2.622 4.719-7.461 0-3.782-.32-6.844-.32-10.305 0-3.461.742-4.414 3.46-4.414h2.82v30.164c0 6.422 2.196 10.617 8.618 10.617 2 0 3.578-.32 4.719-.742l-1.055-6.836c-.62.164-.922.164-1.242.164-.738 0-1.68-.645-1.68-2.625V36.602zm97.954.023v4.844h1.265c2.84 0 3.461.941 3.461 4.422 0 3.261-.32 6.515-.32 10.297 0 4.84 1.578 6.722 4.719 7.46v.32c-3.16.739-4.72 2.622-4.72 7.462 0 3.78.321 6.836.321 10.297 0 3.578-.742 4.523-3.46 4.523v.102h-1.266v5.039h4.101c5.559 0 8.102-2.2 8.102-9.04 0-4.519-.64-6.843-.64-10.921 0-2.2 1.358-4.52 5.46-4.72v-5.46c-4.102-.14-5.46-2.465-5.46-4.664 0-4.102.64-6.516.64-10.914 0-6.84-2.524-9.047-8.102-9.047zM44.969 49.227c-7.68 0-15.028 6.421-14.828 16.507 0 10.399 6.843 16.5 15.867 16.5 3.781 0 7.98-1.359 11.242-3.578l-3.164-5.562c-2.32 1.36-4.516 2-6.836 2-4.2 0-7.465-1.996-8.305-6.836h19.047c.102-.738.32-2.203.32-3.883.118-8.527-4.523-15.148-13.343-15.148zm28.265.101c-7.14 0-11.984 4.102-11.984 9.883 0 5.14 4.523 7.773 8.305 9.234 3.261 1.262 6.414 2.32 6.414 4.422 0 1.578-1.254 2.617-4.094 2.617-2.621 0-5.262-1.058-8.102-3.257l-4.101 6.101c3.16 2.621 7.976 4.422 11.976 4.422 8.399 0 12.93-4.422 12.93-10.203.016-5.777-4.508-8.2-8.61-9.563-3.261-1.261-6.195-1.992-6.195-4.093 0-1.578 1.258-2.524 3.579-2.524 2.32 0 4.418.938 6.718 2.617l4.203-5.554c-2.62-2-6.199-4.102-11.039-4.102zm25.54 0c-7.141 0-11.977 4.102-11.977 9.883 0 5.14 4.516 7.773 8.297 9.234 3.261 1.262 6.422 2.32 6.422 4.422 0 1.578-1.262 2.617-4.102 2.617-2.621 0-5.262-1.058-8.102-3.257l-4.195 6.101c3.16 2.621 7.977 4.422 11.977 4.422 8.398 0 12.93-4.422 12.93-10.203s-4.508-8.2-8.61-9.563c-3.16-1.261-6.102-1.992-6.102-4.093 0-1.578 1.266-2.524 3.586-2.524s4.418.938 6.72 2.617l4.195-5.554c-2.622-2-6.2-4.102-11.04-4.102zM45.07 56.266c3.782 0 5.258 2.625 5.258 6.203h-11.36c.641-4.2 3.16-6.203 6.102-6.203zm0 0" fill="#fff"/></svg>