<svg xmlns="http://www.w3.org/2000/svg" width="250pt" height="250pt" viewBox="0 0 250 250"><path d="M233.965 110.45L139.55 16.034C135.547 12.012 130.273 10 125 10s-10.547 2.012-14.55 6.035L91.776 34.707l23.106 23.105c7.676-4.511 17.676-3.535 24.258 3.047 6.582 6.582 7.539 16.582 3.027 24.239l22.715 22.715c7.676-4.512 17.676-3.536 24.258 3.046 7.812 7.813 7.812 20.47 0 28.282-7.813 7.812-20.47 7.812-28.282 0-6.582-6.582-7.558-16.582-3.047-24.258l-22.714-22.715a19.277 19.277 0 01-5.098 2.11v61.425c8.613 2.227 15 9.98 15 19.297 0 11.055-8.945 20-20 20s-20-8.945-20-20c0-9.316 6.387-17.07 15-19.297V94.277c-3.34-.859-6.523-2.52-9.14-5.136-6.583-6.582-7.54-16.582-3.028-24.239L84.707 41.777 16.035 110.45c-8.047 8.028-8.047 21.074 0 29.102l94.414 94.414C114.453 237.988 119.727 240 125 240s10.547-2.012 14.55-6.035l94.415-94.414c8.047-8.028 8.047-21.074 0-29.102zm0 0" fill="#fff"/></svg>